<?xml version="1.0" encoding="utf-8"?>
<!-- Generator: Adobe Illustrator 16.0.0, SVG Export Plug-In . SVG Version: 6.00 Build 0)  -->
<!DOCTYPE svg PUBLIC "-//W3C//DTD SVG 1.1//EN" "http://www.w3.org/Graphics/SVG/1.1/DTD/svg11.dtd">
<svg version="1.1" xmlns="http://www.w3.org/2000/svg" xmlns:xlink="http://www.w3.org/1999/xlink" x="0px" y="0px" width="575px"
	 height="1717px" viewBox="0 0 575 1717" enable-background="new 0 0 575 1717" xml:space="preserve">
<g id="background">
	<path d="M287.497,0C128.674,0,0,55.973,0,125.025v1466.955c0,69.056,128.674,125.026,287.497,125.026
		c158.83,0,287.503-55.971,287.503-125.026V125.025C575,55.973,446.326,0,287.497,0z"/>
</g>
<g id="white_x5F_buttons">
	<ellipse fill="#F2F2F2" cx="116.178" cy="283.65" rx="46.889" ry="45.582"/>
	<path fill="#F2F2F2" d="M333.948,283.65c0,25.173-20.994,45.582-46.887,45.582c-25.896,0-46.889-20.409-46.889-45.582
		c0-25.174,20.994-45.582,46.889-45.582C312.954,238.069,333.948,258.476,333.948,283.65z"/>
	<ellipse fill="#F2F2F2" cx="457.941" cy="283.65" rx="46.888" ry="45.582"/>
	<ellipse fill="#F2F2F2" cx="116.178" cy="417.009" rx="46.889" ry="45.582"/>
	<path fill="#F2F2F2" d="M333.948,417.009c0,25.174-20.994,45.582-46.887,45.582c-25.896,0-46.889-20.408-46.889-45.582
		c0-25.173,20.994-45.582,46.889-45.582C312.954,371.428,333.948,391.836,333.948,417.009z"/>
	<ellipse fill="#F2F2F2" cx="457.941" cy="417.009" rx="46.888" ry="45.582"/>
	<ellipse fill="#F2F2F2" cx="116.178" cy="554.537" rx="46.889" ry="45.582"/>
	<path fill="#F2F2F2" d="M333.948,554.537c0,25.174-20.994,45.582-46.887,45.582c-25.896,0-46.889-20.408-46.889-45.582
		c0-25.174,20.994-45.582,46.889-45.582C312.954,508.955,333.948,529.363,333.948,554.537z"/>
	<ellipse fill="#F2F2F2" cx="457.941" cy="554.537" rx="46.888" ry="45.582"/>
	<ellipse fill="#F2F2F2" cx="116.178" cy="687.896" rx="46.889" ry="45.582"/>
	<path fill="#F2F2F2" d="M333.948,687.896c0,25.176-20.994,45.582-46.887,45.582c-25.896,0-46.889-20.406-46.889-45.582
		c0-25.176,20.994-45.582,46.889-45.582C312.954,642.314,333.948,662.721,333.948,687.896z"/>
	<ellipse fill="#F2F2F2" cx="457.941" cy="687.896" rx="46.888" ry="45.582"/>
	<path fill="#F2F2F2" d="M139.966,1323.175c0-14.396-10.966-26.142-23.966-27.001V1296H58v0.174c0-0.036-0.86-0.084-1.388-0.084
		c-14.099,0-25.441,12.129-25.441,27.085c0,14.965,11.3,27.093,25.398,27.093c0.526,0,1.431-0.05,1.431-0.087V1350h58v0.181
		C129,1349.324,139.966,1337.576,139.966,1323.175z"/>
	<path fill="#F2F2F2" d="M271.962,1323.175c0-14.396-8.962-26.142-23.962-27.001V1296h-58v0.174c0-0.036-0.175-0.084-0.702-0.084
		c-14.1,0-25.096,12.129-25.096,27.085c0,14.965,10.78,27.093,24.88,27.093c0.527,0,0.918-0.05,0.918-0.087V1350h58v0.181
		C263,1349.324,271.962,1337.576,271.962,1323.175z"/>
	<path fill="#F2F2F2" d="M411.965,1323.175c0-14.396-8.965-26.142-23.965-27.001V1296h-58v0.174c0-0.036-1.404-0.084-1.934-0.084
		c-14.098,0-25.712,12.129-25.712,27.085c0,14.965,11.706,27.093,25.804,27.093c0.53,0,1.842-0.05,1.842-0.087V1350h58v0.181
		C403,1349.324,411.965,1337.576,411.965,1323.175z"/>
	<path fill="#F2F2F2" d="M544.963,1323.175c0-14.396-9.963-26.142-23.963-27.001V1296h-58v0.174c-1-0.036-1.219-0.084-1.747-0.084
		c-14.099,0-25.622,12.129-25.622,27.085c0,14.965,11.568,27.093,25.668,27.093c0.528,0,0.701-0.05,1.701-0.087V1350h58v0.181
		C535,1349.324,544.963,1337.576,544.963,1323.175z"/>
	<path fill="#F2F2F2" d="M139.966,1410.69c0-14.394-10.966-26.14-23.966-26.997V1384H58v-0.307c0-0.038-0.86-0.086-1.388-0.086
		c-14.099,0-25.441,12.128-25.441,27.083c0,14.965,11.3,27.095,25.398,27.095c0.526,0,1.431-0.048,1.431-0.086V1438h58v-0.301
		C129,1436.84,139.966,1425.094,139.966,1410.69z"/>
	<path fill="#F2F2F2" d="M271.962,1410.69c0-14.394-8.962-26.14-23.962-26.997V1384h-58v-0.307c0-0.038-0.175-0.086-0.702-0.086
		c-14.1,0-25.096,12.128-25.096,27.083c0,14.965,10.78,27.095,24.88,27.095c0.527,0,0.918-0.048,0.918-0.086V1438h58v-0.301
		C263,1436.84,271.962,1425.094,271.962,1410.69z"/>
	<path fill="#F2F2F2" d="M411.965,1410.69c0-14.394-8.965-26.14-23.965-26.997V1384h-58v-0.307c0-0.038-1.404-0.086-1.934-0.086
		c-14.098,0-25.712,12.128-25.712,27.083c0,14.965,11.706,27.095,25.804,27.095c0.53,0,1.842-0.048,1.842-0.086V1438h58v-0.301
		C403,1436.84,411.965,1425.094,411.965,1410.69z"/>
	<path fill="#F2F2F2" d="M544.963,1410.69c0-14.394-9.963-26.14-23.963-26.997V1384h-58v-0.307c-1-0.038-1.219-0.086-1.747-0.086
		c-14.099,0-25.622,12.128-25.622,27.083c0,14.965,11.568,27.095,25.668,27.095c0.528,0,0.701-0.048,1.701-0.086V1438h58v-0.301
		C535,1436.84,544.963,1425.094,544.963,1410.69z"/>
	<path fill="#F2F2F2" d="M139.966,1494.041c0-14.396-10.966-26.143-23.966-26.999V1467H58v0.042c0-0.036-0.86-0.084-1.388-0.084
		c-14.099,0-25.441,12.127-25.441,27.083c0,14.965,11.3,27.092,25.398,27.092c0.526,0,1.431-0.049,1.431-0.084V1521h58v0.049
		C129,1520.189,139.966,1508.444,139.966,1494.041z"/>
	<path fill="#F2F2F2" d="M271.962,1494.041c0-14.396-8.962-26.143-23.962-26.999V1467h-58v0.042c0-0.036-0.175-0.084-0.702-0.084
		c-14.1,0-25.096,12.127-25.096,27.083c0,14.965,10.78,27.092,24.88,27.092c0.527,0,0.918-0.049,0.918-0.084V1521h58v0.049
		C263,1520.189,271.962,1508.444,271.962,1494.041z"/>
	<path fill="#F2F2F2" d="M411.965,1494.041c0-14.396-8.965-26.143-23.965-26.999V1467h-58v0.042c0-0.036-1.404-0.084-1.934-0.084
		c-14.098,0-25.712,12.127-25.712,27.083c0,14.965,11.706,27.092,25.804,27.092c0.53,0,1.842-0.049,1.842-0.084V1521h58v0.049
		C403,1520.189,411.965,1508.444,411.965,1494.041z"/>
	<path fill="#F2F2F2" d="M544.963,1494.041c0-14.396-9.963-26.143-23.963-26.999V1467h-58v0.042c-1-0.036-1.219-0.084-1.747-0.084
		c-14.099,0-25.622,12.127-25.622,27.083c0,14.965,11.568,27.092,25.668,27.092c0.528,0,0.701-0.049,1.701-0.084V1521h58v0.049
		C535,1520.189,544.963,1508.444,544.963,1494.041z"/>
</g>
<g id="gray_x5F_buttons">
	<path fill="#999999" d="M357.395,1015.305c0,38.264-31.028,69.285-69.292,69.285c-38.266,0-69.292-31.021-69.292-69.285
		s31.026-69.283,69.292-69.283C326.366,946.021,357.395,977.041,357.395,1015.305z"/>
	<path fill="#999999" d="M488.33,1020.687c0-18.129-5.375-34.146-13.615-44.057l0.032-0.037l-0.574-0.635
		c-0.286-0.333-0.582-0.655-0.876-0.974l-42.042-46.546l-34.61,31.256l13.172,27.48l0.191,17.516l0,0l-0.167,51.684l-13.518,22.771
		l32.737,32.135l41.427-42.188C481.078,1060.017,488.33,1041.768,488.33,1020.687z"/>
	<path fill="#999999" d="M87.895,1019.77c0.291,18.122,5.922,34.056,14.319,43.832l-0.032,0.036l0.584,0.628
		c0.294,0.328,0.592,0.647,0.895,0.956l42.78,45.871l34.103-31.81l-13.607-27.265l-0.473-17.513l0,0l-0.659-51.678l13.149-22.983
		l-33.244-31.608l-40.748,42.847C94.52,980.329,87.558,998.692,87.895,1019.77z"/>
	<path fill="#999999" d="M288.1,1219.736c18.124,0.27,34.222-4.873,44.255-12.964l0.036,0.034l0.639-0.563
		c0.342-0.284,0.667-0.574,0.989-0.866l47.165-41.345l-30.746-35.066l-27.674,12.763l-17.518-0.065l0,0l-51.679-0.928
		l-22.569-13.849l-32.619,32.253l41.578,42.04C248.873,1211.906,267.016,1219.422,288.1,1219.736z"/>
	<path fill="#999999" d="M291.477,819.405c-18.125-0.014-34.151,5.349-44.07,13.579l-0.036-0.035l-0.634,0.576
		c-0.337,0.289-0.658,0.581-0.974,0.879l-46.585,41.999l31.231,34.634l27.493-13.154l17.517-0.174l0,0l51.687,0.207l22.761,13.537
		l32.162-32.709l-42.155-41.457C330.802,826.69,312.556,819.421,291.477,819.405z"/>
	<path fill="#B3B3B3" d="M179.246,143.774c0-14.395-13.246-26.141-26.246-26.999V117H92v-0.225c-5-0.037-2.083-0.085-2.659-0.085
		c-15.442,0-28.435,12.128-28.435,27.084c0,14.964,13.229,27.094,28.669,27.094c0.579,0-2.576-0.049,2.424-0.086V171h61v-0.218
		C166,169.923,179.246,158.178,179.246,143.774z"/>
</g>
<g id="power_x5F_button">
	<path fill="#FF0000" d="M519.248,143.774c0-14.395-15.248-26.141-26.248-26.999V117h-63v-0.225c-5-0.037-2.285-0.085-2.863-0.085
		c-15.441,0-28.528,12.128-28.528,27.084c0,14.964,13.375,27.094,28.817,27.094c0.577,0-2.426-0.049,2.574-0.086V171h63v-0.218
		C504,169.923,519.248,158.178,519.248,143.774z"/>
</g>
<g id="colored_x5F_buttons">
	<ellipse fill="#C1272D" cx="116.178" cy="1208.833" rx="46.889" ry="45.582"/>
	<ellipse fill="#29ABE2" cx="116.178" cy="821.256" rx="46.889" ry="45.582"/>
	<ellipse fill="#F7931E" cx="462.109" cy="821.256" rx="46.889" ry="45.582"/>
	<ellipse fill="#009245" cx="457.941" cy="1208.833" rx="46.888" ry="45.582"/>
</g>
</svg>
